<svg enable-background="new 0 0 140 140" height="512" viewBox="0 0 140 140" width="512" xmlns="http://www.w3.org/2000/svg"><circle cx="70" cy="70" fill="#4abaa4" r="64"/><path d="m52.3699951 110.3699951v-11.25l-19.4799805-19.3699951c-1.1500244-1.0400391-1.8499756-2.5900879-1.8499756-4.2199707v-43.3601074h51.3499756l14.4300537 14.4300537c1.3398438.0400391 2.5499268.5699463 3.4699707 1.4300537l.0400391-.0300293 32.75 32.75c-4.8000488 28.3800049-28.2700195 50.3999023-57.3500977 52.9799805z" opacity=".1"/><path d="m82.3857651 32.1732712v38.9290771l-40.6809845 9.9595337-5.3331604-.0094528c-.35812 0-.7259293-.0290604-1.1034241-.1065674-2.5165291-.4936447-4.2297363-2.8552704-4.2297363-5.4201279v-43.3524627z" fill="#ececec"/><path d="m47.0369987 46.5788803h-.000061c-2.9457741 0-5.3338089 2.3880959-5.3338089 5.3338699v29.1477203h10.6676826v-29.1477203c.0000001-2.945774-2.3880386-5.3338699-5.3338127-5.3338699z" fill="#b0b1b5"/><path d="m96.5546722 46.5788803h-27.7406387-21.8770332c2.9457741 0 5.3338089 2.3880959 5.3338089 5.3338699v16.84758 12.3001404 29.3074646h49.6170235v-58.4558945c-.0000001-2.9455376-2.3877411-5.3331604-5.3331605-5.3331604z" fill="#e6e7e8"/><path d="m56.712112 50.961586h40.934422v15.590569h-40.934422z" fill="#32796b"/><g fill="#dad7dc"><path d="m56.712112 69.556046h40.934422v.975284h-40.934422z"/><path d="m56.712112 73.535225h40.934422v.975284h-40.934422z"/><path d="m56.712112 77.514397h40.934422v.975284h-40.934422z"/><path d="m56.712112 81.493576h40.934422v.975284h-40.934422z"/><path d="m56.712112 85.472748h40.934422v.975284h-40.934422z"/><path d="m56.712112 89.451927h40.934422v.975284h-40.934422z"/><path d="m56.712112 93.431107h40.934422v.975284h-40.934422z"/><path d="m56.712112 97.410278h40.934422v.975284h-40.934422z"/><path d="m56.712112 101.389458h40.934422v.975284h-40.934422z"/><path d="m56.712112 105.36863h40.934422v.975284h-40.934422z"/></g><path d="m88.935707 95.685341h5.271896v3.786448h-5.271896z" fill="#344e5c" transform="matrix(.707 -.707 .707 .707 -42.178 93.331)"/><path d="m107.3350143 107.3108368-11.1037369-8.8004761-3.7278061 3.7278061 8.8004761 11.1037369c1.5941467 2.0113754 4.5853348 2.1838608 6.400116.3690796l.0000305-.0000305c1.8147812-1.8147812 1.6422959-4.8059693-.3690796-6.400116z" fill="#344e5c"/><path d="m96.9917526 98.2921906-4.7064743 4.7064743c-.4323502.4323502-1.1333237.4323502-1.5656738 0l-.1624756-.1624756c-.4323502-.4323502-.4323502-1.1333237 0-1.5656738l4.7064743-4.7064819c.4323502-.4323502 1.1333313-.4323502 1.5656738 0l.1624756.1624756c.4323502.4323501.4323502 1.1333312 0 1.5656814z" fill="#db584d"/><circle cx="81.696" cy="87.703" fill="#db584d" r="13.858"/><circle cx="81.696" cy="87.703" fill="#e6e7e8" r="10.57"/><circle cx="81.696" cy="87.703" fill="#d6b251" r="9.419"/><path d="m79.7054901 92.7224808c-.2876358 0-.5752792-.109787-.7948532-.329361l-2.6978149-2.6978149c-.4391403-.4391479-.4391403-1.1505585 0-1.5897064.4391479-.4391479 1.1505585-.4391479 1.5897064 0l1.9029617 1.9029617 5.8838196-5.883812c.4391403-.4391479 1.1505585-.4391479 1.5897064 0 .4391403.4391479.4391403 1.1505585 0 1.5897064l-6.6786728 6.6786652c-.219574.219574-.5072098.329361-.7948532.329361z" fill="#e6e7e8"/></svg>